# xmcd
#
# Track frame offsets:
#	183
#	16850
#	34538
#	53200
#	70150
#	93795
#	114555
#	130980
#	144055
#	176580
#	194103
#	210738
#	224498
#	239033
#	252458
#	270825
#	286828
#
# Disc length: 4078 seconds
#
# Revision: 1
# Processed by: cddbd v1.4PL0 Copyright (c) Steve Scherf et al.
# Submitted via: audiograbber 1.81.03
#
DISCID=fa0fec11
DTITLE=T E X - Hot And Blue
DYEAR=1993
DGENRE=Blues
TTITLE0=Set Me Free
TTITLE1=In The Night
TTITLE2=Sucker Man Blues
TTITLE3=Day By Day
TTITLE4=Hey Little Girl
TTITLE5=Down The River
TTITLE6=You Know What I Mean
TTITLE7=Shuffle Number Nine
TTITLE8=Maybe I'm Wrong
TTITLE9=Hobo Man
TTITLE10=I Need Radio
TTITLE11=In Love With The Blues
TTITLE12=Hide Away
TTITLE13=Gun Blues
TTITLE14=Like A Real Macho
TTITLE15=Magic Woman
TTITLE16=Feel My Song
EXTD=
EXTT0=
EXTT1=
EXTT2=
EXTT3=
EXTT4=
EXTT5=
EXTT6=
EXTT7=
EXTT8=
EXTT9=
EXTT10=
EXTT11=
EXTT12=
EXTT13=
EXTT14=
EXTT15=
EXTT16=
PLAYORDER=
